# AST/ASF file generated using VICON BodyLanguage
# -----------------------------------------------
:version 1.10
:name VICON
:units
  mass 1.0
  length 0.45
  angle deg
:documentation
   .ast/.asf automatically generated from VICON data using
   VICON BodyBuilder and BodyLanguage model FoxedUp or BRILLIANT.MOD
:root
   order TX TY TZ RX RY RZ
   axis XYZ
   position 0 0 0  
   orientation 0 0 0 
:bonedata
  begin
     id 1 
     name lhipjoint
     direction 0.62366 -0.717238 0.310833 
     length 2.53602 
     axis 0 0 0  XYZ
  end
  begin
     id 2 
     name lfemur
     direction 0.34202 -0.939693 0  
     length 7.40817  
     axis 0 0 20  XYZ
    dof rx ry rz
    limits (-160.0 20.0)
           (-70.0 70.0)
           (-60.0 70.0)
  end
  begin
     id 3 
     name ltibia
     direction 0.34202 -0.939693 0   
     length 7.7045   
     axis 0 0 20   XYZ
    dof rx
    limits (-10.0 170.0)
  end
  begin
     id 4 
     name lfoot
     direction 0.0673888 -0.185149 0.980397   
     length 2.09456   
     axis -90 7.62852e-016 20   XYZ
    dof rx rz
    limits (-45.0 90.0)
           (-70.0 20.0)
  end
  begin
     id 5 
     name ltoes
     direction 1.53575e-011 -4.21994e-011 1   
     length 1.05543   
     axis -90 7.62852e-016 20   XYZ
    dof rx
    limits (-90.0 20.0)
  end
  begin
     id 6 
     name rhipjoint
     direction -0.489018 -0.800347 0.346851   
     length 2.27268  
     axis 0 0 0  XYZ 
  end
  begin
     id 7 
     name rfemur
     direction -0.34202 -0.939693 0   
     length 7.55487   
     axis 0 0 -20   XYZ
    dof rx ry rz
    limits (-160.0 20.0)
           (-70.0 70.0)
           (-70.0 60.0)
  end
  begin
     id 8 
     name rtibia
     direction -0.34202 -0.939693 0   
     length 7.78969   
     axis 0 0 -20   XYZ
    dof rx
    limits (-10.0 170.0)
 end
 begin
     id 9 
     name rfoot
     direction -0.0859318 -0.236096 0.967923   
     length 2.19143  
     axis -90 -7.62852e-016 -20   XYZ
    dof rx rz
    limits (-45.0 90.0)
           (-20.0 70.0)
  end
  begin
     id 10 
     name rtoes
     direction -1.53538e-011 -4.21989e-011 1   
     length 1.09845   
     axis -90 -7.62852e-016 -20   XYZ
    dof rx
    limits (-90.0 20.0)
  end
  begin
     id 11 
     name lowerback
     direction -0.00762546 0.998978 -0.0445553   
     length 1.98161   
     axis 0 0 0   XYZ
    dof rx ry rz
    limits (-20.0 45.0)
           (-30.0 30.0)
           (-30.0 30.0)
  end
  begin
     id 12 
     name upperback
     direction 0.0422361 0.998867 -0.0219156   
     length 1.97558   
     axis 0 0 0   XYZ
    dof rx ry rz
    limits (-20.0 45.0)
           (-30.0 30.0)
           (-30.0 30.0)
  end
  begin
     id 13 
     name thorax
     direction 0.0442465 0.999021 7.47603e-005   
     length 1.97799   
     axis 0 0 0   XYZ
    dof rx ry rz
    limits (-20.0 45.0)
           (-30.0 30.0)
           (-30.0 30.0)
  end
  begin
     id 14 
     name lowerneck
     direction 0.00312169 0.984641 0.174564   
     length 1.78995   
     axis 0 0 0   XYZ
    dof rx ry rz
    limits (-20.0 45.0)
           (-30.0 30.0)
           (-30.0 30.0)
  end
  begin
     id 15 
     name upperneck
     direction -0.0383028 0.985255 -0.166749   
     length 1.83053   
     axis 0 0 0   XYZ
    dof rx ry rz
    limits (-20.0 45.0)
           (-30.0 30.0)
           (-30.0 30.0)
  end
  begin
     id 16
     name head
     direction -0.0129546 0.997059 -0.0755386  
     length 1.84088  
     axis 0 0 0   XYZ
    dof rx ry rz
    limits (-20.0 45.0)
           (-30.0 30.0)
           (-30.0 30.0)
  end
  begin
     id 17 
     name lclavicle
     direction 0.912857 0.370519 -0.171488  
     length 3.51279  
     axis 0 0 0   XYZ
    dof ry rz
    limits (-20.0 10.0)
           (0.0 20.0)
  end
  begin
     id 18 
     name lhumerus
     direction 1 -4.48962e-011 3.64361e-027   
     length 4.95663   
     axis 180 -30 -90   XYZ
    dof rx ry rz
    limits (-60.0 90.0)
           (-90.0 90.0)
           (-90.0 90.0)
  end
  begin
     id 19
     name lradius
     direction 1 -4.48974e-011 5.97202e-027   
     length 3.38177   
     axis 180 -30 -90   XYZ
    dof rx
    limits (-10.0 170.0)
  end
  begin
     id 20
     name lwrist
     direction 1 -4.4896e-011 9.83288e-027   
     length 1.69088   
     axis -9.31221e-015 90 90   XYZ
    dof ry
    limits (-180.0 0.0)
 end
  begin
     id 21 
     name lhand
     direction 1 -4.4902e-011 1.96551e-026   
     length 0.662909   
     axis -1.25475e-014 90 90   XYZ
    dof rx rz
    limits (-90.0 90.0)
           (-45.0 45.0)
  end
  begin
     id 22 
     name lfingers
     direction 1 -4.48971e-011 3.93277e-026   
     length 0.534454   
     axis -2.50945e-014 90 90   XYZ
    dof rx
    limits (0.0 90.0)
  end
  begin
     id 23
     name lthumb
     direction 0.707107 -6.34933e-011 0.707107   
     length 0.767373   
     axis -90 45 -4.80359e-014   XYZ
    dof rx rz
    limits (-45.0 45.0)
           (-45.0 45.0)
  end
  begin
     id 24 
     name rclavicle
     direction -0.900919 0.395364 -0.178976   
     length 3.40627  
     axis 0 0 0   XYZ 
    dof ry rz
    limits (-10.0 20.0)
           (-20.0 0.0)
  end
  begin
     id 25 
     name rhumerus
     direction -1 -4.48969e-011 1.03875e-027  
     length 5.08365   
     axis 180 30 90   XYZ
    dof rx ry rz
    limits (-90.0 60.0)
           (-90.0 90.0)
           (-90.0 90.0)
  end
  begin
     id 26 
     name rradius
     direction -1 -4.48951e-011 5.02733e-027   
     length 3.35984   
     axis 180 30 90   XYZ
    dof rx
    limits (-10.0 170.0)
  end
  begin
     id 27 
     name rwrist
     direction -1 -4.49011e-011 9.82828e-027   
     length 1.67992   
     axis -9.31221e-015 -90 -90   XYZ
    dof ry
    limits (-180.0 0.0)
  end
  begin
     id 28
     name rhand
     direction -1 -4.48894e-011 1.96774e-026   
     length 0.820764   
     axis -1.25475e-014 -90 -90   XYZ
    dof rx rz
    limits (-90.0 90.0)
           (-45.0 45.0)
  end
  begin
     id 29
     name rfingers
     direction -1 -4.49095e-011 3.92833e-026   
     length 0.661721   
     axis -2.50945e-014 -90 -90   XYZ
    dof rx
    limits (0.0 90.0)
  end
  begin
     id 30
     name rthumb
     direction -0.707107 -6.34881e-011 0.707107   
     length 0.950103   
     axis -90 -45 4.80359e-014   XYZ
    dof rx rz
    limits (-45.0 45.0)
           (-45.0 45.0)
  end
:hierarchy
  begin
    root lhipjoint rhipjoint lowerback
    lhipjoint lfemur
    lfemur ltibia
    ltibia lfoot
    lfoot ltoes
    rhipjoint rfemur
    rfemur rtibia
    rtibia rfoot
    rfoot rtoes
    lowerback upperback
    upperback thorax
    thorax lowerneck lclavicle rclavicle
    lowerneck upperneck
    upperneck head
    lclavicle lhumerus
    lhumerus lradius
    lradius lwrist
    lwrist lhand lthumb
    lhand lfingers
    rclavicle rhumerus
    rhumerus rradius
    rradius rwrist
    rwrist rhand rthumb
    rhand rfingers
  end

#!OML:ASF I:\golf\golf\golf 2\Subject 1\2002-09-07\Subject1.ASF
:FULLY-SPECIFIED
:DEGREES
1
root -11.9219 18.0922 6.49625 -89.2714 85.0247 -105.018
lowerback 3.61422 1.60702 -1.28071
upperback 3.57711 2.21231 4.73261
thorax 1.42577 1.08616 5.56633
lowerneck -12.0088 -2.18027 1.43862
upperneck 42.3646 0.0596494 -2.86975
head 17.6617 0.603792 -1.34582
rclavicle 3.97569e-015 5.56597e-014
rhumerus -11.1836 11.2188 -100.997
rradius 31.7959
rwrist -48.5137
rhand -29.062 -15.602
rfingers 7.12502
rthumb -2.41163 -45.5682
lclavicle 3.97569e-015 5.56597e-014
lhumerus -14.9698 -49.124 109.476
lradius 38.5252
lwrist 54.7499
lhand -7.62764 63.5232
lfingers 7.12502
lthumb -161.733 87.3145
rfemur -26.5516 0.466689 15.8052
rtibia 18.8634
rfoot -3.24144 -8.37006
rtoes 2.61462
lfemur -27.0451 1.4649 -7.21572
ltibia 20.451
lfoot -6.75417 -1.23727
ltoes -13.1297
2
root -11.9258 18.0934 6.49571 -88.2582 85.0445 -104.049
lowerback 3.5863 1.60781 -1.31338
upperback 3.57025 2.21116 4.7055
thorax 1.43424 1.0845 5.55717
lowerneck -12.0088 -2.18069 1.48715
upperneck 42.3977 0.0529233 -2.88316
head 17.6804 0.607529 -1.36271
rclavicle -2.34566e-014 -2.22639e-014
rhumerus -11.2075 11.2821 -100.944
rradius 31.914
rwrist -48.5687
rhand -29.2205 -15.7824
rfingers 7.12502
rthumb -2.5647 -45.7467
lclavicle -2.34566e-014 -2.22639e-014
lhumerus -14.8673 -49.0322 109.429
lradius 38.4317
lwrist 54.6957
lhand -7.39831 63.1286
lfingers 7.12502
lthumb -161.512 87.73
rfemur -26.6012 0.518679 15.7877
rtibia 18.8168
rfoot -3.18682 -8.32785
rtoes 2.1338
lfemur -27.1053 1.5126 -7.23173
ltibia 20.4947
lfoot -6.66056 -1.14225
ltoes -12.2029
3
root -11.9296 18.0949 6.49492 -87.9026 85.1071 -103.738
lowerback 3.5646 1.61263 -1.3426
upperback 3.54905 2.21492 4.64683
thorax 1.42505 1.08572 5.51207
lowerneck -11.9866 -2.18391 1.53815
upperneck 42.4246 0.0371921 -2.8806
head 17.6893 0.61108 -1.37365
rclavicle -2.26615e-014 -5.56597e-014
rhumerus -11.2633 11.399 -100.889
rradius 32.0826
rwrist -48.8333
rhand -29.5443 -15.8261
rfingers 7.12502
rthumb -2.87742 -45.7865
lclavicle -2.26615e-014 -5.56597e-014
lhumerus -14.84 -49.0669 109.438
lradius 38.3558
lwrist 54.6278
lhand -7.03333 62.852
lfingers 7.12502
lthumb -161.161 88.0402
rfemur -26.6449 0.566356 15.6988
rtibia 18.7826
rfoot -3.20354 -8.38609
rtoes 2.51524
lfemur -27.1381 1.51147 -7.30091
ltibia 20.4649
lfoot -6.54417 -1.0272
ltoes -11.1045
4
root -11.9339 18.0965 6.49418 -88.0017 85.0762 -103.87
lowerback 3.56419 1.60205 -1.28016
upperback 3.53379 2.20182 4.62017
thorax 1.41386 1.08072 5.44838
lowerneck -11.9878 -2.17558 1.58271
upperneck 42.442 0.0320256 -2.86539
head 17.6993 0.618512 -1.37595
rclavicle -1.63003e-014 -6.36111e-015
rhumerus -11.2086 11.3237 -100.856
rradius 32.1115
rwrist -48.832
rhand -29.7168 -15.8926
rfingers 7.12502
rthumb -3.044 -45.8506
lclavicle -1.63003e-014 -6.36111e-015
lhumerus -14.8473 -49.1794 109.456
lradius 38.3829
lwrist 54.6649
lhand -6.99395 63.0071
lfingers 7.12502
lthumb -161.123 87.8889
rfemur -26.6793 0.661841 15.6906
rtibia 18.7693
rfoot -3.21001 -8.51139
rtoes 3.08023
lfemur -27.1729 1.44973 -7.23272
ltibia 20.446
lfoot -6.60164 -1.02498
ltoes -11.2382
5
root -11.9385 18.0958 6.49236 -87.8872 85.1033 -103.756
lowerback 3.60595 1.57202 -1.31618
upperback 3.5293 2.16082 4.60094
thorax 1.38959 1.0598 5.44847
lowerneck -12.0297 -2.15165 1.63553
upperneck 42.4988 0.0678439 -2.89053
head 17.7452 0.638874 -1.39241
rclavicle 5.20816e-014 5.64548e-014
rhumerus -11.18 11.2667 -100.842
rradius 32.1879
rwrist -48.7475
rhand -29.8946 -16.0467
rfingers 7.12502
rthumb -3.21571 -46.0022
lclavicle 5.20816e-014 5.64548e-014
lhumerus -14.8256 -49.1572 109.436
lradius 38.429
lwrist 54.6387
lhand -7.02212 63.3357
lfingers 7.12502
lthumb -161.15 87.5576
rfemur -26.6986 0.629276 15.6722
rtibia 18.7718
rfoot -3.15054 -8.44088
rtoes 2.65434
lfemur -27.1684 1.42756 -7.24173
ltibia 20.409
lfoot -6.61144 -1.12016
ltoes -11.7652
6
root -11.9426 18.0947 6.49164 -87.1448 85.2424 -102.964
lowerback 3.6869 1.55827 -1.51155
upperback 3.54649 2.13664 4.54828
thorax 1.3601 1.0438 5.50316
lowerneck -12.0607 -2.12205 1.76021
upperneck 42.5235 0.110019 -2.9771
head 17.7688 0.663604 -1.4491
rclavicle -2.70347e-014 -3.33958e-014
rhumerus -11.1999 11.2855 -100.835
rradius 32.3109
rwrist -48.7595
rhand -30.2035 -16.0791
rfingers 7.12502
rthumb -3.51399 -46.0299
lclavicle -2.70347e-014 -3.33958e-014
lhumerus -14.757 -49.1441 109.369
lradius 38.4531
lwrist 54.6546
lhand -7.07756 63.3729
lfingers 7.12502
lthumb -161.204 87.5153
rfemur -26.6758 0.649017 15.5269
rtibia 18.7836
rfoot -3.15624 -8.3591
rtoes 2.48738
lfemur -27.103 1.44861 -7.38829
ltibia 20.3906
lfoot -6.5705 -1.16532
ltoes -11.8541
7
root -11.9458 18.0955 6.49328 -85.4984 85.2719 -101.302
lowerback 3.69643 1.56733 -1.5898
upperback 3.57403 2.14539 4.50486
thorax 1.38127 1.04576 5.50224
lowerneck -12.073 -2.08887 1.843
upperneck 42.5033 0.138799 -3.0046
head 17.7607 0.681974 -1.47244
rclavicle 3.29983e-014 6.44062e-014
rhumerus -11.1482 11.1485 -100.848
rradius 32.2856
rwrist -48.6857
rhand -30.4999 -15.9366
rfingers 7.12502
rthumb -3.80021 -45.8825
lclavicle 3.29983e-014 6.44062e-014
lhumerus -14.6663 -49.2103 109.276
lradius 38.4291
lwrist 54.8585
lhand -7.3191 63.0058
lfingers 7.12502
lthumb -161.436 87.86
rfemur -26.7122 0.817959 15.472
rtibia 18.818
rfoot -3.195 -8.3961
rtoes 2.95762
lfemur -27.0571 1.52526 -7.4092
ltibia 20.3951
lfoot -6.60071 -1.1295
ltoes -12.1827
